mtllib material.mtl
o Default
v -1 -1.0002028942108154 1.999899983406067
v -1 -1.0001028776168823 0.9998999834060669
v 0 -1.0001072883605957 0.9998999834060669
v 0 -1.0002071857452393 1.999899983406067
v -2 -1.000103235244751 0.9998999834060669
v -1 -1.0001028776168823 0.9998999834060669
v -2 -1.0002031326293945 1.999899983406067
v -1 -1.0002028942108154 1.999899983406067
v -3 -1.000097632408142 0.9998999834060669
v -2 -1.000103235244751 0.9998999834060669
v -3 -1.0001976490020752 1.999899983406067
v -2 -1.0002031326293945 1.999899983406067
v -4 -1.000076174736023 0.9998999834060669
v -3 -1.000097632408142 0.9998999834060669
v -4 -1.0001760721206665 1.999899983406067
v -3 -1.0001976490020752 1.999899983406067
v -5 -1.000076174736023 0.9998999834060669
v -4 -1.000076174736023 0.9998999834060669
v -5 -1.0001760721206665 1.999899983406067
v -4 -1.0001760721206665 1.999899983406067
v -3 -1.0000239610671997 1.1102230246251565e-16
v -2 -1.000009298324585 1.1102230246251565e-16
v -3 -1.000097632408142 0.9998999834060669
v -2 -1.000103235244751 0.9998999834060669
v -2 -1.000009298324585 1.1102230246251565e-16
v -1 -1 1.1102230246251565e-16
v -2 -1.000103235244751 0.9998999834060669
v -1 -1.0001028776168823 0.9998999834060669
v -5 -1.0000145435333252 1.1102230246251565e-16
v -4 -1.0000196695327759 1.1102230246251565e-16
v -5 -1.000076174736023 0.9998999834060669
v -4 -1.000076174736023 0.9998999834060669
v -4 -1.0000196695327759 1.1102230246251565e-16
v -3 -1.0000239610671997 1.1102230246251565e-16
v -4 -1.000076174736023 0.9998999834060669
v -3 -1.000097632408142 0.9998999834060669
v -1 -1 1.1102230246251565e-16
v 0 -1 1.1102230246251565e-16
v -1 -1.0001028776168823 0.9998999834060669
v 0 -1.0001072883605957 0.9998999834060669
v 1 -0.500076174736023 0.9998999834060669
v 1 -0.5001761317253113 1.999899983406067
v 0 -1.0001072883605957 0.9998999834060669
v 0 -1.0002071857452393 1.999899983406067
v 1 -0.5000145435333252 5.797216484637602e-9
v 1 -0.500076174736023 0.9998999834060669
v 0 -1 1.1102230246251565e-16
v 0 -1.0001072883605957 0.9998999834060669
v -5 -0.00007618049858137965 -0.00009995119035011157
v -4 -0.00007618049858137965 -0.00009995119035011157
v -5 -1.0000145435333252 1.1102230246251565e-16
v -4 -1.0000196695327759 1.1102230246251565e-16
v -4 -0.00007618049858137965 -0.00009995119035011157
v -3 -0.00009760836837813258 -0.00009995119035011157
v -4 -1.0000196695327759 1.1102230246251565e-16
v -3 -1.0000239610671997 1.1102230246251565e-16
v -3 -0.00009760836837813258 -0.00009995119035011157
v -2 -0.0001031814026646316 -0.00009995119035011157
v -3 -1.0000239610671997 1.1102230246251565e-16
v -2 -1.000009298324585 1.1102230246251565e-16
v -2 -0.0001031814026646316 -0.00009995119035011157
v -1 -0.00010285357711836696 -0.00009995119035011157
v -2 -1.000009298324585 1.1102230246251565e-16
v -1 -1 1.1102230246251565e-16
v -1 -0.00010285357711836696 -0.00009995119035011157
v 1 -0.5000145435333252 5.797216484637602e-9
v -1 -1 1.1102230246251565e-16
v 0 -1 1.1102230246251565e-16
v -1 -1.0002028942108154 1.999899983406067
v 1 -0.5001761317253113 1.999899983406067
v -1 -0.00010285357711836696 1.999899983406067
v 0 -1.0002071857452393 1.999899983406067
v -2 -1.0002031326293945 1.999899983406067
v -1 -0.00010285357711836696 1.999899983406067
v -2 -0.0001031814026646316 1.999899983406067
v -1 -1.0002028942108154 1.999899983406067
v -3 -1.0001976490020752 1.999899983406067
v -2 -0.0001031814026646316 1.999899983406067
v -3 -0.00009760836837813258 1.999899983406067
v -2 -1.0002031326293945 1.999899983406067
v -4 -1.0001760721206665 1.999899983406067
v -3 -0.00009760836837813258 1.999899983406067
v -4 -0.00007618049858137965 1.999899983406067
v -3 -1.0001976490020752 1.999899983406067
v -5 -1.0001760721206665 1.999899983406067
v -4 -0.00007618049858137965 1.999899983406067
v -5 -0.00007618049858137965 1.999899983406067
v -4 -1.0001760721206665 1.999899983406067
v -5 -1.0000145435333252 1.1102230246251565e-16
v -5 -0.00007618049858137965 0.9998999834060669
v -5 -0.00007618049858137965 -0.00009995119035011157
v -5 -1.000076174736023 0.9998999834060669
v -5 -1.000076174736023 0.9998999834060669
v -5 -0.00007618049858137965 1.999899983406067
v -5 -0.00007618049858137965 0.9998999834060669
v -5 -1.0001760721206665 1.999899983406067
v -5 -0.00007618049858137965 0.9998999834060669
v -4 -0.00007618049858137965 -0.00009995119035011157
v -5 -0.00007618049858137965 -0.00009995119035011157
v -4 -0.0000761510746087879 0.9998999834060669
v -4 -0.0000761510746087879 0.9998999834060669
v -3 -0.00009760836837813258 -0.00009995119035011157
v -4 -0.00007618049858137965 -0.00009995119035011157
v -3 -0.00009762021363712847 0.9998999834060669
v -3 -0.00009762021363712847 0.9998999834060669
v -2 -0.0001031814026646316 -0.00009995119035011157
v -3 -0.00009760836837813258 -0.00009995119035011157
v -2 -0.00010318951535737142 0.9998999834060669
v -2 -0.00010318951535737142 0.9998999834060669
v -1 -0.00010285357711836696 -0.00009995119035011157
v -2 -0.0001031814026646316 -0.00009995119035011157
v -1 -0.00010284865857101977 0.9998999834060669
v -1 -0.00010284865857101977 0.9998999834060669
v 1 -0.5000145435333252 5.797216484637602e-9
v -1 -0.00010285357711836696 -0.00009995119035011157
v 1 -0.500076174736023 0.9998999834060669
v -1 -0.00010285357711836696 1.999899983406067
v 1 -0.500076174736023 0.9998999834060669
v -1 -0.00010284865857101977 0.9998999834060669
v 1 -0.5001761317253113 1.999899983406067
v -2 -0.0001031814026646316 1.999899983406067
v -1 -0.00010284865857101977 0.9998999834060669
v -2 -0.00010318951535737142 0.9998999834060669
v -1 -0.00010285357711836696 1.999899983406067
v -3 -0.00009760836837813258 1.999899983406067
v -2 -0.00010318951535737142 0.9998999834060669
v -3 -0.00009762021363712847 0.9998999834060669
v -2 -0.0001031814026646316 1.999899983406067
v -4 -0.00007618049858137965 1.999899983406067
v -3 -0.00009762021363712847 0.9998999834060669
v -4 -0.0000761510746087879 0.9998999834060669
v -3 -0.00009760836837813258 1.999899983406067
v -5 -0.00007618049858137965 1.999899983406067
v -4 -0.0000761510746087879 0.9998999834060669
v -5 -0.00007618049858137965 0.9998999834060669
v -4 -0.0001761510648066178 1.999899983406067
vt 0.0625 0.6875
vt 0 0.6875
vt 0.0625 0.625
vt 0 0.625
vn -0.00000441 -0.99999999 -0.00010002
vn -0.00000429 -1 -0.0000999
vn 3.6e-7 -1 -0.0000999
vn 2.4e-7 -0.99999999 -0.00010002
vn -0.0000056 -0.99999999 -0.00010002
vn -0.00000548 -0.99999999 -0.0000999
vn -0.00002146 -0.99999999 -0.0000999
vn -0.00002158 -0.99999999 -0.00010002
vn 0 -1 -0.0000999
vn 0.00001466 -1 -0.00007368
vn -0.0000056 -1 -0.00009395
vn 0.0000093 -1 -0.00009395
vn 3.6e-7 -0.99999999 -0.00010289
vn -0.00000513 -1 -0.00006164
vn 0 -1 -0.00005651
vn -0.00000429 -1 -0.00005651
vn -0.00002146 -1 -0.00007368
vn 0 -0.99999999 -0.00010289
vn -0.00000441 -0.99999999 -0.0001073
vn 0.44723586 -0.89441606 -0.0000894
vn 0.44723581 -0.89441608 -0.00008935
vn 0.44720319 -0.89443239 -0.00005513
vn 0.44723586 -0.89441606 -0.00009597
vn 0 -0.00009996 -1
vn 0.00002499 -0.00009996 -0.99999999
vn 0 1e-8 -1
vn 0 0 1
vn -1 0 0
vn 0 1 0
vn -3e-8 1 -3e-8
vn 0.00002143 1 -3e-8
vn 0.00002147 1 1e-8
vn 0.00000557 1 1e-8
vn -3.3e-7 1 1e-8
vn -3.4e-7 1 0
vn 0.24249531 0.97015258 0
vn 0.24252345 0.97014554 0.0000598
vn 0.24252345 0.97014554 0
vn 0.24256908 0.97013413 0.00009697
vn -3.4e-7 1 -1e-8
vn -3.3e-7 1 0
vn 0.00000557 1 -1e-8
vn 0.00002147 1 3e-8
vn 0.00002143 1 -1e-8
vn -3e-8 1 0
vn 0.00009997 0.99999999 0.0001
g Object 667
usemtl 0
f 2/1/1 3/2/1 1/3/1
f 3/2/2 4/4/2 1/3/2
f 5/1/3 6/2/3 7/3/3
f 6/2/4 8/4/4 7/3/4
f 9/1/5 10/2/5 11/3/5
f 10/2/6 12/4/6 11/3/6
f 13/1/7 14/2/7 15/3/7
f 14/2/8 16/4/8 15/3/8
f 17/1/9 18/2/9 19/3/9
f 18/2/9 20/4/9 19/3/9
f 21/1/10 22/2/10 23/3/10
f 22/2/11 24/4/11 23/3/11
f 25/1/12 26/2/12 27/3/12
f 26/2/13 28/4/13 27/3/13
f 29/1/14 30/2/14 31/3/14
f 30/2/15 32/4/15 31/3/15
f 33/1/16 34/2/16 35/3/16
f 34/2/17 36/4/17 35/3/17
f 37/1/18 38/2/18 39/3/18
f 38/2/19 40/4/19 39/3/19
f 41/1/20 42/2/20 43/3/20
f 42/2/21 44/4/21 43/3/21
f 45/1/22 46/2/22 47/3/22
f 46/2/23 48/4/23 47/3/23
f 49/1/24 50/2/24 51/3/24
f 50/2/24 52/4/24 51/3/24
f 53/1/24 54/2/24 55/3/24
f 54/2/24 56/4/24 55/3/24
f 57/1/24 58/2/24 59/3/24
f 58/2/24 60/4/24 59/3/24
f 61/1/24 62/2/24 63/3/24
f 62/2/24 64/4/24 63/3/24
f 65/1/25 66/2/25 67/3/25
f 66/2/26 68/4/26 67/3/26
f 69/3/27 70/2/27 71/1/27
f 69/3/27 72/4/27 70/2/27
f 73/3/27 74/2/27 75/1/27
f 73/3/27 76/4/27 74/2/27
f 77/3/27 78/2/27 79/1/27
f 77/3/27 80/4/27 78/2/27
f 81/3/27 82/2/27 83/1/27
f 81/3/27 84/4/27 82/2/27
f 85/3/27 86/2/27 87/1/27
f 85/3/27 88/4/27 86/2/27
f 89/3/28 90/2/28 91/1/28
f 89/3/28 92/4/28 90/2/28
f 93/3/28 94/2/28 95/1/28
f 93/3/28 96/4/28 94/2/28
f 97/3/29 98/2/29 99/1/29
f 97/3/30 100/4/30 98/2/30
f 101/3/31 102/2/31 103/1/31
f 101/3/32 104/4/32 102/2/32
f 105/3/33 106/2/33 107/1/33
f 105/3/33 108/4/33 106/2/33
f 109/3/34 110/2/34 111/1/34
f 109/3/35 112/4/35 110/2/35
f 113/3/36 114/2/36 115/1/36
f 113/3/37 116/4/37 114/2/37
f 117/3/38 118/2/38 119/1/38
f 117/3/39 120/4/39 118/2/39
f 121/3/40 122/2/40 123/1/40
f 121/3/41 124/4/41 122/2/41
f 125/3/42 126/2/42 127/1/42
f 125/3/42 128/4/42 126/2/42
f 129/3/43 130/2/43 131/1/43
f 129/3/44 132/4/44 130/2/44
f 133/3/45 134/2/45 135/1/45
f 133/3/46 136/4/46 134/2/46
